<svg id="Layer_1" height="512" viewBox="0 0 512 512" width="512" xmlns="http://www.w3.org/2000/svg" xmlns:xlink="http://www.w3.org/1999/xlink" data-name="Layer 1"><linearGradient id="linear-gradient" gradientUnits="userSpaceOnUse" x1="255.89" x2="255.89" y1="30" y2="484.159"><stop offset="0" stop-color="#00efd1"/><stop offset="1" stop-color="#00acea"/></linearGradient><linearGradient id="linear-gradient-2" x1="198.527" x2="198.527" xlink:href="#linear-gradient" y1="30" y2="484.159"/><linearGradient id="linear-gradient-3" x1="313.473" x2="313.473" xlink:href="#linear-gradient" y1="30" y2="484.159"/><linearGradient id="linear-gradient-4" x1="256" x2="256" xlink:href="#linear-gradient" y1="30" y2="484.159"/><path d="m434.017 9h-356.032c-14.017 0-24.985 10.651-24.985 24.117v429.412c0 .13-.22.107-.22.238 0 22.268 18.736 40.233 42.033 40.233h313.312c14.016 0 25.875-10.649 25.875-24.112v-43.888h.017a24.972 24.972 0 0 0 24.983-24.886v-377c0-13.465-10.966-24.114-24.983-24.114zm-12.017 469.888c0 6.846-6.476 12.112-13.875 12.112h-313.312c-16.681 0-30.251-12.582-30.251-28.233v-.015c.188-15.503 13.686-27.752 30.251-27.752h327.187zm25-68.774a12.959 12.959 0 0 1 -12.983 12.886h-339.204c-11.846 0-22.813 4.218-29.813 11.75v-401.633c0-6.849 5.584-12.117 12.985-12.117h356.032c7.4 0 12.983 5.266 12.983 12.112z" fill="url(#linear-gradient)"/><path d="m232.408 176.122a6 6 0 0 0 -8.4-1.167l-58.191 44a6 6 0 0 0 0 9.571l58.191 44a6 6 0 0 0 7.237-9.571l-51.862-39.216 51.862-39.217a6 6 0 0 0 1.163-8.4z" fill="url(#linear-gradient-2)"/><path d="m279.592 176.122a6 6 0 0 0 1.167 8.4l51.862 39.217-51.862 39.216a6 6 0 1 0 7.241 9.575l58.191-44a6 6 0 0 0 0-9.571l-58.191-44a6 6 0 0 0 -8.408 1.163z" fill="url(#linear-gradient-3)"/><g fill="url(#linear-gradient-4)"><path d="m266.83 152.542a6.005 6.005 0 0 0 -6.83 5.035l-19.865 131.245a6 6 0 1 0 11.865 1.8l19.865-131.245a6 6 0 0 0 -5.035-6.835z"/><path d="m256 89.5c-73.987 0-134.181 60.193-134.181 134.181s60.194 134.184 134.181 134.184 134.181-60.194 134.181-134.181-60.194-134.184-134.181-134.184zm0 256.362a122.181 122.181 0 1 1 122.181-122.178 122.319 122.319 0 0 1 -122.181 122.181z"/></g></svg>