<svg width="32" height="40" viewBox="0 0 32 40" fill="none" xmlns="http://www.w3.org/2000/svg">
<path d="M31.2862 8.36523L28.8568 35.6799C25.2566 38.3882 20.7356 39.9999 15.8256 39.9999C10.9155 39.9999 6.39455 38.3882 2.7943 35.6799L0.364868 8.36523H31.2862Z" fill="#006BC0"/>
<path d="M15.8253 10.9336V39.46L25.9892 36.678L28.2565 10.9336H15.8253Z" fill="#0096DC"/>
<path d="M24.8062 22.0915H17.4757L25.1356 18.3119L25.4666 14.5125H6.18414L6.52155 18.3861H14.2619L6.83518 21.9864L7.18073 25.9547H20.4288L19.9945 30.6809L15.8254 31.7757L11.4825 30.5967L11.3739 27.6494H7.32837L7.83443 33.4599L15.8254 35.6494L23.8162 33.4599L24.8064 22.0908L24.8062 22.0915Z" fill="white"/>
<path d="M8.2904 4.15439V1.45961H12.2858V0H6.84277V5.614H12.2858V4.15439H8.2904Z" fill="#222123"/>
<path d="M14.6237 2.19647V1.52272H18.5975V1.45961V0H13.1544V3.48064H17.0557V4.15439H13.1544V5.614H18.5975V4.15439V2.19647H14.6237Z" fill="#222123"/>
<path d="M20.834 2.19647V1.52272H24.8077V1.45961V0H19.3647V3.48064H23.266V4.15439H19.3647V5.614H24.8077V4.15439V2.19647H20.834Z" fill="#222123"/>
</svg>
