<svg width="32" height="30" viewBox="0 0 32 30" fill="none" xmlns="http://www.w3.org/2000/svg">
<path d="M27.7494 0H4.70733C2.35987 0 0.456787 1.7537 0.456787 3.91707V25.1515C0.456787 27.3149 2.35979 29.0686 4.70733 29.0686H16.0716L16.0909 18.681H13.1625C12.7819 18.681 12.473 18.3975 12.4716 18.0467L12.4575 14.6984C12.4561 14.3458 12.7659 14.0592 13.1485 14.0592H16.0716V10.8239C16.0716 7.06928 18.5599 5.02488 22.1944 5.02488H25.1768C25.5583 5.02488 25.8678 5.30996 25.8678 5.66167V8.485C25.8678 8.83657 25.5586 9.12158 25.1771 9.12179L23.3469 9.12257C21.3704 9.12257 20.9876 9.98812 20.9876 11.2583V14.0593H25.3308C25.7446 14.0593 26.0657 14.3923 26.0169 14.771L25.5863 18.1194C25.5451 18.4398 25.2502 18.6812 24.9001 18.6812H21.007L20.9876 29.0687H27.7495C30.097 29.0687 32 27.315 32 25.1517V3.91707C31.9999 1.7537 30.0969 0 27.7494 0Z" fill="white"/>
</svg>
