<svg width="22" height="33" viewBox="0 0 22 33" fill="none" xmlns="http://www.w3.org/2000/svg">
<path d="M5.34375 32.0625C8.2935 32.0625 10.6875 29.6685 10.6875 26.7188V21.375H5.34375C2.394 21.375 0 23.769 0 26.7188C0 29.6685 2.394 32.0625 5.34375 32.0625Z" fill="#0ACF83"/>
<path d="M0 16.0312C0 13.0815 2.394 10.6875 5.34375 10.6875H10.6875V21.375H5.34375C2.394 21.375 0 18.981 0 16.0312Z" fill="#A259FF"/>
<path d="M0 5.34375C0 2.394 2.394 0 5.34375 0H10.6875V10.6875H5.34375C2.394 10.6875 0 8.2935 0 5.34375Z" fill="#F24E1E"/>
<path d="M10.6875 0H16.0312C18.981 0 21.375 2.394 21.375 5.34375C21.375 8.2935 18.981 10.6875 16.0312 10.6875H10.6875V0Z" fill="#FF7262"/>
<path d="M21.375 16.0312C21.375 18.981 18.981 21.375 16.0312 21.375C13.0815 21.375 10.6875 18.981 10.6875 16.0312C10.6875 13.0815 13.0815 10.6875 16.0312 10.6875C18.981 10.6875 21.375 13.0815 21.375 16.0312Z" fill="#1ABCFE"/>
</svg>
