<svg width="32" height="40" viewBox="0 0 32 40" fill="none" xmlns="http://www.w3.org/2000/svg">
<path d="M31.3187 8.2937L28.8893 35.6701C25.289 38.3844 20.7681 39.9998 15.858 39.9998C10.9923 39.9998 6.50864 38.4131 2.92402 35.7426L0.488525 8.2937H31.3187Z" fill="#E64C18"/>
<path d="M15.9032 10.8604V39.3672L26.0374 36.5872L28.298 10.8604H15.9032Z" fill="#F36518"/>
<path d="M6.29041 14.437L7.28417 25.8717H20.4931L20.0609 30.5952L15.9035 31.6892L11.5736 30.5105L11.4649 27.5656H7.43155L7.93646 33.3716L15.9035 35.5596L23.8705 33.3716L24.8579 22.011H10.9475L10.6023 18.3084L10.6022 18.3082L25.1868 18.234L25.5166 14.437H6.29041Z" fill="white"/>
<path d="M7.14305 0V1.96452H5.21138V0H3.41437V5.63137H5.21138V3.79794H7.14305V5.63137H8.94006V0H7.14305Z" fill="black"/>
<path d="M15.3193 0H9.79346V1.96452H11.5905V5.67515H13.5223V1.96452H15.3193V0Z" fill="black"/>
<path d="M25.6073 3.88518V0.0437012H23.6754V3.88518V5.67515H25.6073H28.3925V3.88518H25.6073Z" fill="black"/>
<path d="M20.7552 0.0437012L19.4076 2.05176L18.0598 0.0437012H16.1281V5.67515H18.0598V2.88115L19.4076 4.88937L20.7552 2.88115V5.67515H22.6871V0.0437012H20.7552Z" fill="black"/>
</svg>
