<svg width="50" height="50" viewBox="0 0 50 50" fill="none" xmlns="http://www.w3.org/2000/svg">
<path d="M24.9997 12.9065C19.6646 12.9065 15.3245 17.2466 15.3245 22.5817C15.3245 26.06 17.1651 29.2239 20.162 30.9533V31.8644C19.675 32.2328 19.3557 32.8108 19.3557 33.4673C19.3557 33.9227 19.513 34.3389 19.7685 34.6767C19.5128 35.0136 19.3557 35.4298 19.3557 35.8853C19.3557 36.9972 20.2595 37.901 21.3714 37.901H28.6278C29.7397 37.901 30.6435 36.9972 30.6435 35.8853C30.6435 35.4298 30.4862 35.0136 30.2307 34.6759C30.4864 34.3381 30.6435 33.9221 30.6435 33.4664C30.6435 32.8102 30.3242 32.2321 29.8373 31.8635V30.9524C32.8342 29.223 34.6748 26.06 34.6748 22.5809C34.675 17.2466 30.3349 12.9065 24.9997 12.9065ZM28.628 36.2883H21.3716C21.1498 36.2883 20.9685 36.1069 20.9685 35.8851C20.9685 35.6633 21.1498 35.482 21.3716 35.482H28.628C28.8498 35.482 29.0311 35.6633 29.0311 35.8851C29.0313 36.1069 28.8498 36.2883 28.628 36.2883ZM28.628 33.8696H21.3716C21.1498 33.8696 20.9685 33.6882 20.9685 33.4664C20.9685 33.2446 21.1498 33.0633 21.3716 33.0633H28.628C28.8498 33.0633 29.0311 33.2446 29.0311 33.4664C29.0311 33.6882 28.8498 33.8696 28.628 33.8696ZM28.6634 29.7559L28.2249 29.9816V31.4505H25.806V25.6921C27.1935 25.3316 28.2249 24.0795 28.2249 22.5816C28.2249 20.8029 26.7784 19.3564 24.9997 19.3564C23.221 19.3564 21.7746 20.8029 21.7746 22.5816C21.7746 24.0797 22.8057 25.3318 24.1934 25.6921V31.4505H21.7746V29.9816L21.336 29.7565C18.6229 28.3681 16.937 25.6188 16.937 22.5816C16.937 18.1358 20.554 14.5189 24.9997 14.5189C29.4455 14.5189 33.0624 18.1358 33.0624 22.5816C33.0624 25.6189 31.3767 28.3683 28.6634 29.7559ZM24.9997 24.1943C24.1105 24.1943 23.3871 23.4712 23.3871 22.5817C23.3871 21.6925 24.1103 20.9692 24.9997 20.9692C25.8891 20.9692 26.6123 21.6923 26.6123 22.5817C26.6125 23.471 25.8893 24.1943 24.9997 24.1943Z" fill="url(#paint0_linear)"/>
<path d="M49.4139 29.9964C48.8487 27.414 47.8909 24.808 46.5977 22.2554C48.4779 15.8197 47.6434 9.85265 43.895 6.105C40.5563 2.76709 35.4406 1.64554 29.4798 2.94928C28.9 3.07593 28.3196 3.23068 27.7382 3.4C25.1864 2.10828 22.5828 1.15131 20.0021 0.586975C13.4138 -0.855432 7.75546 0.381255 4.06842 4.06846C0.381215 7.75566 -0.854626 13.4147 0.586088 20.0028C1.15127 22.5852 2.10824 25.1912 3.40165 27.7438C1.48668 34.2689 2.39625 40.1869 6.10428 43.8949C8.53516 46.3258 11.9086 47.5804 15.8633 47.5804C17.3405 47.5804 18.899 47.4047 20.5187 47.0506C21.0984 46.924 21.6789 46.7692 22.2603 46.5999C24.8121 47.8916 27.4156 48.8486 29.9964 49.4129C31.7903 49.8047 33.5149 49.9991 35.15 49.9991C39.5201 49.9991 43.2474 48.6139 45.9306 45.9306C49.6184 42.2444 50.8545 36.5852 49.4139 29.9964ZM42.7549 7.24517C45.7751 10.2654 46.6305 14.9716 45.4776 20.197C43.6619 17.0969 41.3504 14.1081 38.6203 11.3789C35.8911 8.64881 32.9023 6.3373 29.8022 4.52155C34.9809 3.3807 39.7038 4.19426 42.7549 7.24517ZM2.16141 19.6584C0.841587 13.6259 1.92352 8.49405 5.20826 5.20847C7.58038 2.83634 10.9142 1.61337 14.8569 1.61337C16.3735 1.61337 17.9812 1.79471 19.6582 2.16162C21.6174 2.5905 23.5945 3.25659 25.5496 4.13449C21.0233 5.8583 16.5638 8.80272 12.6832 12.6833C11.2796 14.0869 9.99026 15.5882 8.82926 17.146C8.46235 17.0202 8.07462 16.9372 7.66504 16.9372C5.66474 16.9372 4.03676 18.565 4.03676 20.5655C4.03676 21.5966 4.47376 22.5231 5.16627 23.1843C4.78564 23.9792 4.43821 24.771 4.1375 25.5564C3.25807 23.5986 2.59046 21.6201 2.16141 19.6584ZM9.68092 20.5655C9.68092 21.6765 8.77711 22.5812 7.66521 22.5812C6.55331 22.5812 5.6495 21.6765 5.6495 20.5655C5.6495 19.4544 6.55331 18.5498 7.66521 18.5498C8.77711 18.5498 9.68092 19.4544 9.68092 20.5655ZM7.24497 42.7547C4.26584 39.7756 3.36271 35.104 4.53032 29.8166C6.34437 32.9119 8.65351 35.895 11.3795 38.6202C14.1096 41.3511 17.0983 43.6635 20.2 45.4792C15.0198 46.6209 10.2969 45.8073 7.24497 42.7547ZM12.5193 37.4802C9.47334 34.4342 6.96983 31.0614 5.12902 27.5816C5.50642 26.4077 5.99016 25.2112 6.56177 24.0034C6.91175 24.1164 7.27781 24.1938 7.6647 24.1938C9.66501 24.1938 11.293 22.5659 11.293 20.5655C11.293 19.5577 10.8785 18.6466 10.2134 17.9878C11.3052 16.5366 12.5121 15.136 13.8239 13.8235C18.0787 9.5687 22.9348 6.60821 27.5724 5.12381C31.0563 6.96445 34.4314 9.46966 37.4807 12.5189C40.5292 15.5674 43.0342 18.9432 44.8757 22.4263C43.9761 25.2234 42.5273 28.1153 40.5495 30.9454C40.1076 30.7527 39.6215 30.6439 39.1095 30.6439C37.1092 30.6439 35.4812 32.2717 35.4812 34.2721C35.4812 35.009 35.7045 35.6927 36.0835 36.2652C31.8514 40.4706 27.0332 43.4022 22.4293 44.8761C18.9454 43.0346 15.5687 40.5296 12.5193 37.4802ZM41.1254 34.272C41.1254 35.3839 40.2215 36.2877 39.1096 36.2877C37.9977 36.2877 37.0939 35.3839 37.0939 34.272C37.0939 33.1601 37.9977 32.2563 39.1096 32.2563C40.2215 32.2563 41.1254 33.1601 41.1254 34.272ZM44.7916 44.7914C41.5077 48.0762 36.3782 49.1598 30.3416 47.8383C28.3824 47.4094 26.4062 46.7433 24.4502 45.8654C28.9532 44.1504 33.3901 41.2261 37.2561 37.3745C37.8003 37.7011 38.43 37.9003 39.1098 37.9003C41.1101 37.9003 42.7381 36.2724 42.7381 34.272C42.7381 33.3665 42.393 32.5473 41.8424 31.9112C43.5703 29.4448 44.9135 26.926 45.8625 24.4435C46.7421 26.402 47.4097 28.3804 47.8386 30.3421C49.1581 36.374 48.0761 41.5067 44.7916 44.7914Z" fill="url(#paint1_linear)"/>
<defs>
<linearGradient id="paint0_linear" x1="24.9995" y1="13.2779" x2="24.9996" y2="50.1399" gradientUnits="userSpaceOnUse">
<stop stop-color="#E75E5E"/>
<stop offset="1" stop-color="#FFD600"/>
</linearGradient>
<linearGradient id="paint1_linear" x1="24.9995" y1="0.742881" x2="24.9997" y2="74.4819" gradientUnits="userSpaceOnUse">
<stop stop-color="#E75E5E"/>
<stop offset="1" stop-color="#FFD600"/>
</linearGradient>
</defs>
</svg>
