<svg width="40" height="49" viewBox="0 0 40 49" fill="none" xmlns="http://www.w3.org/2000/svg">
<path d="M37.3845 0H2.61572C1.24688 0 0.175781 1.04014 0.175781 2.35518V44.2899C0.175781 44.3026 0.154297 44.3004 0.154297 44.3132C0.154297 46.4878 1.98399 48.2422 4.25908 48.2422H34.856C36.2247 48.2422 37.3828 47.2022 37.3828 45.8875V41.6016H37.3845C38.03 41.6019 38.6493 41.3462 39.1066 40.8906C39.5639 40.4351 39.822 39.8168 39.8242 39.1713V2.35488C39.8242 1.03994 38.7533 0 37.3845 0ZM36.2109 45.8875C36.2109 46.5561 35.5785 47.0703 34.856 47.0703H4.25908C2.63008 47.0703 1.30488 45.8416 1.30488 44.3132V44.3117C1.32324 42.7978 2.64141 41.6016 4.25908 41.6016H36.2109V45.8875ZM38.6524 39.1713C38.6505 39.5061 38.516 39.8265 38.2783 40.0624C38.0407 40.2982 37.7193 40.4303 37.3845 40.4297H4.25908C3.10225 40.4297 2.03125 40.8416 1.34766 41.5771V2.35518C1.34766 1.68633 1.89297 1.17188 2.61572 1.17188H37.3845C38.1071 1.17188 38.6524 1.68613 38.6524 2.35469V39.1713Z" fill="url(#paint0_linear)"/>
<path d="M17.6965 16.3207C17.6027 16.1969 17.4637 16.1153 17.3099 16.094C17.1561 16.0726 17.0001 16.1132 16.8761 16.2067L11.1934 20.5036C11.1212 20.5582 11.0626 20.6289 11.0223 20.71C10.9819 20.791 10.9609 20.8804 10.9609 20.9709C10.9609 21.0615 10.9819 21.1508 11.0223 21.2319C11.0626 21.313 11.1212 21.3837 11.1934 21.4383L16.8761 25.7352C17.0002 25.8266 17.1554 25.8655 17.3079 25.8433C17.4605 25.8212 17.5982 25.7398 17.6911 25.6169C17.7841 25.4939 17.8249 25.3393 17.8046 25.1865C17.7844 25.0336 17.7047 24.895 17.5829 24.8005L12.5182 20.9708L17.5829 17.141C17.7066 17.0472 17.7881 16.9082 17.8094 16.7544C17.8307 16.6005 17.7901 16.4446 17.6965 16.3207Z" fill="url(#paint1_linear)"/>
<path d="M22.3042 16.3208C22.2106 16.4447 22.17 16.6008 22.1914 16.7546C22.2128 16.9084 22.2943 17.0474 22.4181 17.1411L27.4828 20.9709L22.4181 24.8006C22.3568 24.847 22.3051 24.9051 22.2661 24.9715C22.2272 25.0379 22.2017 25.1113 22.1911 25.1875C22.1805 25.2638 22.1851 25.3414 22.2045 25.4159C22.2239 25.4904 22.2578 25.5603 22.3042 25.6217C22.3506 25.6831 22.4087 25.7347 22.4751 25.7737C22.5415 25.8127 22.6149 25.8382 22.6911 25.8487C22.7674 25.8593 22.845 25.8548 22.9194 25.8354C22.9939 25.816 23.0639 25.7821 23.1253 25.7357L28.808 21.4388C28.8802 21.3842 28.9388 21.3135 28.9792 21.2324C29.0195 21.1514 29.0405 21.062 29.0405 20.9715C29.0405 20.8809 29.0195 20.7916 28.9792 20.7105C28.9388 20.6294 28.8802 20.5588 28.808 20.5041L23.1253 16.2073C23.0639 16.1608 22.994 16.1268 22.9195 16.1074C22.845 16.0879 22.7675 16.0834 22.6912 16.0939C22.6149 16.1045 22.5415 16.1299 22.4751 16.1689C22.4087 16.2078 22.3506 16.2594 22.3042 16.3208Z" fill="url(#paint2_linear)"/>
<path d="M21.0579 14.0178C20.9043 13.9946 20.7477 14.0334 20.6227 14.1256C20.4976 14.2178 20.4143 14.3559 20.3909 14.5095L18.451 27.3263C18.4394 27.4024 18.443 27.48 18.4614 27.5547C18.4799 27.6295 18.5129 27.6998 18.5585 27.7618C18.6041 27.8237 18.6615 27.8761 18.7274 27.9159C18.7933 27.9556 18.8663 27.982 18.9424 27.9936C19.0961 28.0169 19.2527 27.9782 19.3778 27.886C19.4398 27.8404 19.4921 27.783 19.5319 27.7171C19.5717 27.6513 19.5981 27.5782 19.6097 27.5021L21.5496 14.6852C21.5612 14.6091 21.5576 14.5315 21.5392 14.4567C21.5207 14.382 21.4877 14.3116 21.4421 14.2496C21.3964 14.1876 21.339 14.1352 21.2731 14.0954C21.2071 14.0557 21.134 14.0293 21.0579 14.0178Z" fill="url(#paint3_linear)"/>
<path d="M20.0001 7.86133C12.7748 7.86133 6.89648 13.7396 6.89648 20.9649C6.89648 28.1903 12.7748 34.0688 20.0001 34.0688C27.2254 34.0688 33.1037 28.1905 33.1037 20.9652C33.1037 13.7399 27.2254 7.86133 20.0001 7.86133ZM20.0001 32.8967C17.6402 32.8967 15.3333 32.1969 13.3712 30.8858C11.409 29.5747 9.87966 27.7112 8.97658 25.531C8.0735 23.3507 7.83723 20.9516 8.29765 18.6371C8.75806 16.3225 9.89448 14.1965 11.5632 12.5278C13.2319 10.8592 15.358 9.72279 17.6725 9.26243C19.9871 8.80208 22.3861 9.03841 24.5664 9.94154C26.7466 10.8447 28.6101 12.374 29.9211 14.3362C31.2322 16.2984 31.9319 18.6053 31.9318 20.9652C31.9283 24.1286 30.67 27.1614 28.4332 29.3983C26.1963 31.6352 23.1635 32.8934 20.0001 32.897V32.8967Z" fill="url(#paint4_linear)"/>
<defs>
<linearGradient id="paint0_linear" x1="19.9889" y1="0.716777" x2="19.9891" y2="71.8647" gradientUnits="userSpaceOnUse">
<stop stop-color="#E75E5E"/>
<stop offset="1" stop-color="#FFD600"/>
</linearGradient>
<linearGradient id="paint1_linear" x1="14.3879" y1="16.2334" x2="14.3879" y2="30.629" gradientUnits="userSpaceOnUse">
<stop stop-color="#E75E5E"/>
<stop offset="1" stop-color="#FFD600"/>
</linearGradient>
<linearGradient id="paint2_linear" x1="25.613" y1="16.2335" x2="25.613" y2="30.6363" gradientUnits="userSpaceOnUse">
<stop stop-color="#E75E5E"/>
<stop offset="1" stop-color="#FFD600"/>
</linearGradient>
<linearGradient id="paint3_linear" x1="20.0003" y1="14.2191" x2="20.0005" y2="34.8501" gradientUnits="userSpaceOnUse">
<stop stop-color="#E75E5E"/>
<stop offset="1" stop-color="#FFD600"/>
</linearGradient>
<linearGradient id="paint4_linear" x1="19.9999" y1="8.25072" x2="20" y2="46.9017" gradientUnits="userSpaceOnUse">
<stop stop-color="#E75E5E"/>
<stop offset="1" stop-color="#FFD600"/>
</linearGradient>
</defs>
</svg>
