<svg width="50" height="50" viewBox="0 0 50 50" fill="none" xmlns="http://www.w3.org/2000/svg">
<path d="M35.342 16.8804V16.8807C35.3748 16.9487 35.4183 17.0124 35.4725 17.0696L37.1708 18.8846C37.3161 19.0399 37.5126 19.1185 37.7098 19.1185C37.8906 19.1185 38.0718 19.0525 38.2141 18.9193C38.5116 18.6409 38.5273 18.1736 38.2484 17.876L37.709 17.2992H39.497C39.5962 17.2992 39.6801 17.3831 39.6801 17.4823V26.5884C39.6801 26.9958 40.0104 27.3262 40.4178 27.3262C40.8256 27.3262 41.156 26.9958 41.156 26.5884V17.4823C41.156 16.5676 40.4117 15.8233 39.497 15.8233H37.709L38.2484 15.2465C38.5269 14.949 38.5116 14.4821 38.2137 14.2036C37.9162 13.9251 37.4492 13.9404 37.1708 14.2383L35.4725 16.053C35.4183 16.1098 35.3752 16.1735 35.3424 16.241C35.2936 16.3421 35.2695 16.4524 35.2695 16.5618C35.2695 16.6706 35.2936 16.7797 35.3416 16.88C35.342 16.88 35.342 16.8804 35.342 16.8804Z" fill="url(#paint0_linear)"/>
<path d="M15.073 27.8101L13.475 26.1007C13.1966 25.8032 12.7296 25.7875 12.4317 26.0656C12.1342 26.3441 12.1185 26.8114 12.3966 27.1089L12.8376 27.5804H11.248C11.1797 27.5804 11.1195 27.5202 11.1195 27.4515V18.8646C11.1195 18.4568 10.7891 18.1265 10.3817 18.1265C9.97391 18.1265 9.64355 18.4568 9.64355 18.8646V27.4515C9.64355 28.3365 10.3634 29.0563 11.2484 29.0563H12.8376L12.397 29.5278C12.1185 29.8254 12.1342 30.2923 12.4321 30.5708C12.5744 30.7039 12.7552 30.7699 12.936 30.7699C13.1329 30.7699 13.3297 30.6913 13.475 30.5357L15.073 28.8267C15.1283 28.7687 15.1726 28.7039 15.205 28.6344C15.2527 28.5345 15.276 28.4265 15.276 28.3182C15.276 28.2102 15.2527 28.1023 15.205 28.0023C15.1722 27.9329 15.1283 27.8681 15.073 27.8101Z" fill="url(#paint1_linear)"/>
<path d="M46.1788 5.29137H33.8234V1.61057C33.8234 0.722504 33.1009 0 32.2128 0H17.9363C17.0483 0 16.3258 0.722504 16.3258 1.61057V5.29137H3.91617C2.13356 5.29137 0.683594 6.80275 0.683594 8.66089V38.813C0.683594 40.6712 2.13356 42.1825 3.91617 42.1825H14.7598L14.1434 43.911H12.9189C11.2404 43.911 9.87473 45.277 9.87473 46.9555V48.6488C9.87473 49.3938 10.4805 50 11.2255 50H38.0913C38.8363 50 39.4424 49.3938 39.4424 48.6488V46.9555C39.4424 45.277 38.0768 43.911 36.3983 43.911H34.9194L34.3014 42.1825H46.1792C47.963 42.1825 49.4144 40.6712 49.4144 38.813V8.66089C49.4144 6.80313 47.963 5.29137 46.1788 5.29137ZM17.8017 23.3803H32.3471V24.4556C32.3471 24.527 32.2845 24.5899 32.2128 24.5899H17.9363C17.8635 24.5899 17.8017 24.5285 17.8017 24.4556V23.3803ZM17.9363 1.47591H32.2128C32.2857 1.47591 32.3475 1.5377 32.3475 1.61057V2.70844H17.8017V1.61057C17.8017 1.53618 17.8619 1.47591 17.9363 1.47591ZM3.91617 6.76765H16.3258V8.51326H5.04494C4.30641 8.51326 3.7281 9.12399 3.7281 9.9041V34.3201C3.7281 35.0807 4.34685 35.6995 5.1075 35.6995H23.1445C23.5523 35.6995 23.8827 35.3691 23.8827 34.9613C23.8827 34.5539 23.5523 34.2236 23.1445 34.2236H5.20439V9.98917H16.3258V14.6481C16.3258 15.0555 16.6561 15.3858 17.0639 15.3858C17.4713 15.3858 17.8017 15.0555 17.8017 14.6481V4.18434H32.3471V21.9044H17.8017V17.7956C17.8017 17.3878 17.4713 17.0574 17.0639 17.0574C16.6561 17.0574 16.3258 17.3878 16.3258 17.7956V24.4556C16.3258 25.3433 17.0483 26.0658 17.9363 26.0658H32.2128C33.1009 26.0658 33.8234 25.3433 33.8234 24.4556V9.98993L44.8936 10.0006V34.2236L26.6415 34.2518C26.2337 34.2525 25.9041 34.5837 25.9045 34.9911C25.9052 35.3985 26.2352 35.7281 26.6426 35.7281H26.6438L44.9902 35.6995C45.7508 35.6995 46.3696 35.0807 46.3696 34.3201V9.9041C46.3696 9.14345 45.7508 8.52432 44.9909 8.52432L33.8234 8.51364V6.76765H46.1788C47.1489 6.76765 47.9382 7.61681 47.9382 8.66089V37.294H2.1595V8.66089C2.1595 7.61681 2.94762 6.76765 3.91617 6.76765ZM37.9662 46.9555V48.5241H11.3506V46.9555C11.3506 46.0907 12.0541 45.3873 12.9189 45.3873H14.6591H14.6633H14.666H34.3971H34.3994H34.404H36.3979C37.2627 45.3873 37.9662 46.0907 37.9662 46.9555ZM33.3519 43.911H15.7104L16.3269 42.1825H32.7335L33.3519 43.911ZM46.1788 40.7066H3.91617C2.94762 40.7066 2.1595 39.8571 2.1595 38.813V38.7699H47.9382V38.813C47.9382 39.8571 47.1489 40.7066 46.1788 40.7066Z" fill="url(#paint2_linear)"/>
<defs>
<linearGradient id="paint0_linear" x1="38.2127" y1="14.2023" x2="38.2128" y2="33.8493" gradientUnits="userSpaceOnUse">
<stop stop-color="#E75E5E"/>
<stop offset="1" stop-color="#FFD600"/>
</linearGradient>
<linearGradient id="paint1_linear" x1="12.4597" y1="18.3143" x2="12.4598" y2="36.9609" gradientUnits="userSpaceOnUse">
<stop stop-color="#E75E5E"/>
<stop offset="1" stop-color="#FFD600"/>
</linearGradient>
<linearGradient id="paint2_linear" x1="25.0486" y1="0.742894" x2="25.0488" y2="74.4832" gradientUnits="userSpaceOnUse">
<stop stop-color="#E75E5E"/>
<stop offset="1" stop-color="#FFD600"/>
</linearGradient>
</defs>
</svg>
