<svg width="32" height="29" viewBox="0 0 32 29" fill="none" xmlns="http://www.w3.org/2000/svg">
<path d="M22.1953 0H9.84411C4.82448 0 0.740723 3.87407 0.740723 8.63597V20.353C0.740723 25.1149 4.82448 28.989 9.84411 28.989H22.1953C27.2149 28.989 31.2987 25.1149 31.2987 20.353V8.63597C31.2987 3.87407 27.2149 0 22.1953 0ZM28.2246 20.353C28.2246 23.5119 25.5252 26.0727 22.1953 26.0727H9.84411C6.51427 26.0727 3.81485 23.5119 3.81485 20.353V8.63597C3.81485 5.47705 6.51427 2.91629 9.84411 2.91629H22.1953C25.5252 2.91629 28.2246 5.47705 28.2246 8.63597V20.353Z" fill="white"/>
<path d="M16.0197 6.99683C11.6618 6.99683 8.11633 10.3602 8.11633 14.4944C8.11633 18.6285 11.6618 21.9919 16.0197 21.9919C20.3776 21.9919 23.9231 18.6285 23.9231 14.4944C23.9231 10.3602 20.3776 6.99683 16.0197 6.99683ZM16.0197 19.0757C13.3526 19.0757 11.1905 17.0246 11.1905 14.4944C11.1905 11.9642 13.3526 9.91312 16.0197 9.91312C18.6869 9.91312 20.849 11.9642 20.849 14.4944C20.849 17.0246 18.6868 19.0757 16.0197 19.0757Z" fill="white"/>
<path d="M23.9384 8.84955C24.9843 8.84955 25.8322 8.04518 25.8322 7.05295C25.8322 6.06071 24.9843 5.25635 23.9384 5.25635C22.8924 5.25635 22.0446 6.06071 22.0446 7.05295C22.0446 8.04518 22.8924 8.84955 23.9384 8.84955Z" fill="white"/>
</svg>
