<svg width="33" height="40" viewBox="0 0 33 40" fill="none" xmlns="http://www.w3.org/2000/svg">
<path d="M30.6142 40H1.98528C0.9527 40 0.115601 39.2133 0.115601 38.2428V1.7572C0.115601 0.786743 0.9527 0 1.98528 0H24.6633L32.4836 6.98853V38.2428C32.4839 39.2133 31.6468 40 30.6142 40Z" fill="#F4F4F4"/>
<path d="M24.6633 0H21.301L29.1213 6.98853V38.2428C29.1213 39.2133 28.2845 40 27.2516 40H30.6139C31.6465 40 32.4836 39.2133 32.4836 38.2428V6.98853L24.6633 0Z" fill="#E8E8E8"/>
<path d="M29.1212 3.98376L24.6633 0H1.98528C0.9527 0 0.115601 0.786743 0.115601 1.7572V3.98376H29.1212Z" fill="#F6D867"/>
<path d="M22.2084 3.98376H29.1212L24.6632 0H22.2084V3.98376Z" fill="#E0C55E"/>
<path d="M24.6633 0V5.23132C24.6633 6.20178 25.5004 6.98853 26.5329 6.98853H32.4839L24.6633 0Z" fill="#DEDCDD"/>
<path d="M0.115601 28.8691V38.2426C0.115601 39.2131 0.952701 39.9998 1.98528 39.9998H30.6142C31.6468 39.9998 32.4839 39.2131 32.4839 38.2426V28.8691H0.115601Z" fill="#F6D867"/>
<path d="M29.1213 38.2426C29.1213 39.2131 28.2845 39.9998 27.2516 39.9998H30.614C31.6452 39.9998 32.4836 39.2146 32.4836 38.2426V28.8691H29.1213V38.2426Z" fill="#E0C55E"/>
<path d="M13.4277 37.19C14.6295 37.19 15.6036 36.2922 15.6036 35.1841V32.2425C15.6036 31.9773 15.375 31.7625 15.0932 31.7625C14.8113 31.7625 14.5827 31.9773 14.5827 32.2425V35.1841C14.5827 36.4219 12.7014 36.7033 12.3231 35.4771C12.2617 35.2778 12.0666 35.1322 11.8347 35.1322C11.4938 35.1322 11.2506 35.4438 11.3476 35.7496C11.6162 36.5958 12.4491 37.19 13.4277 37.19Z" fill="#495663"/>
<path d="M19.0027 36.2693C18.4435 36.2693 17.8944 36.0746 17.4083 35.8426C17.0797 35.6852 16.6907 35.911 16.6907 36.2567C16.6907 36.431 16.7933 36.5833 16.9447 36.6629C18.8513 37.6572 21.2708 37.1878 21.2708 35.5851C21.2708 34.3973 20.032 34.1535 18.9689 33.9725C18.2649 33.8526 17.7889 33.7915 17.7866 33.3557C17.785 32.9892 18.1237 32.6038 18.9773 32.6038C19.9638 32.6038 20.4155 33.0555 20.7226 33.0555C21.2302 33.0555 21.4052 32.4124 20.9538 32.1863C18.69 31.0517 16.768 31.9937 16.7657 33.3957C16.7635 34.6726 18.0987 34.8615 18.9689 34.9951C19.7729 35.1184 20.2495 35.1996 20.2531 35.6159C20.2586 36.167 19.4043 36.2693 19.0027 36.2693Z" fill="#495663"/>
</svg>
