<svg width="31" height="30" viewBox="0 0 31 30" fill="none" xmlns="http://www.w3.org/2000/svg">
<path d="M27.8702 0H2.77181C1.241 0 0 1.17728 0 2.6295V26.4391C0 27.8914 1.241 29.0687 2.77181 29.0687H27.8701C29.401 29.0687 30.642 27.8914 30.642 26.4391V2.6295C30.642 1.17728 29.401 0 27.8702 0ZM9.48192 25.0999C9.48192 25.5225 9.1208 25.8651 8.67529 25.8651H5.24162C4.79611 25.8651 4.43498 25.5225 4.43498 25.0999V11.4451C4.43498 11.0224 4.79611 10.6799 5.24162 10.6799H8.67529C9.1208 10.6799 9.48192 11.0224 9.48192 11.4451V25.0999ZM6.95845 9.3927C5.15691 9.3927 3.69645 8.00722 3.69645 6.29817C3.69645 4.58913 5.15691 3.20365 6.95845 3.20365C8.75999 3.20365 10.2205 4.58913 10.2205 6.29817C10.2205 8.00722 8.76007 9.3927 6.95845 9.3927ZM27.4262 25.1615C27.4262 25.55 27.0941 25.8651 26.6845 25.8651H22.9999C22.5904 25.8651 22.2583 25.55 22.2583 25.1615V18.7566C22.2583 17.8012 22.5537 14.5697 19.6262 14.5697C17.3554 14.5697 16.8948 16.7816 16.8023 17.7742V25.1615C16.8023 25.55 16.4703 25.8651 16.0606 25.8651H12.497C12.0875 25.8651 11.7554 25.55 11.7554 25.1615V11.3834C11.7554 10.9949 12.0875 10.6799 12.497 10.6799H16.0606C16.4702 10.6799 16.8023 10.9949 16.8023 11.3834V12.5747C17.6443 11.376 18.8957 10.4507 21.56 10.4507C27.4599 10.4507 27.4262 15.6798 27.4262 18.5528V25.1615Z" fill="white"/>
</svg>
