<svg width="192" height="305" viewBox="0 0 192 305" fill="none" xmlns="http://www.w3.org/2000/svg">
<circle cx="23.9749" cy="19.9749" r="19.9749" fill="white"/>
<circle cx="23.9751" cy="19.975" r="16.2759" fill="#3A3232"/>
<circle cx="171.975" cy="284.975" r="19.9749" fill="white"/>
<circle cx="171.975" cy="284.975" r="16.2759" fill="#3A3232"/>
<circle cx="142.975" cy="150.975" r="19.9749" fill="white"/>
<circle cx="142.975" cy="150.975" r="16.2759" fill="#3A3232"/>
<circle cx="23.9749" cy="284.975" r="19.9749" fill="white"/>
<circle cx="23.9751" cy="284.975" r="16.2759" fill="#3A3232"/>
<circle cx="171.975" cy="19.9749" r="19.9749" fill="white"/>
<circle cx="171.975" cy="19.975" r="16.2759" fill="#3A3232"/>
<circle cx="23.9749" cy="150.975" r="19.9749" fill="white"/>
<path d="M5.00898 22C9.50879 59.5 -15.4912 169 23.0088 169L85.0088 170.5L143.009 170C153.009 169 162.009 161.5 162.009 151C161.5 139.5 152.5 132.5 143.009 132C91.3465 129.428 75.4503 127.208 24 131C14.5 131.5 8 138 5 148H4C6.5 137.5 13 130.815 24 130C75.6499 126.174 91.569 128.017 143.009 131C154 131 162.5 139 163.104 151C163 159.5 157.009 170.5 143.009 171L85.0088 171.5L23.0091 170C-14.9912 171.5 6.01254 81.4373 4.00899 22C3.0089 8 12.509 0 24.009 0L24.0092 1C12.5092 0.999913 4.50914 9.5 5.00898 22Z" fill="#ED4444"/>
<path d="M40.2509 150.975C40.2509 159.964 32.964 167.251 23.9751 167.251C14.9862 167.251 7.69922 159.964 7.69922 150.975C7.69922 141.986 14.9862 134.699 23.9751 134.699C32.964 134.699 40.2509 141.986 40.2509 150.975Z" fill="#3A3232"/>
<path d="M4 148H5V287C6 294.5 11 303 24 304H173C180 304 191 297 191 285C189.5 272.5 182.5 267 173 266L24 267C15.3769 267.512 7.5 271 5 280L4.5 279C6.5 271 14.0042 265.84 24 266L173 265C180.5 265 192 271 192 285C192 297.5 182 304.5 173 305H24C15.5 305 6 299.5 4 287V148Z" fill="#ED4444"/>
<path d="M24.0002 0H173C182.5 0.5 192 8 192 20C192 32.5 181.5 40 173 40H23C12.5 38 5 33.5 4 21H5C7.38265 31.5819 10.4038 36.2277 23 39H173C180.5 39 190.5 31 191 20C191 10.5 183 1.5 173 1H24.0002V0Z" fill="#ED4444"/>
<path d="M11 18C11 12.4772 15.4772 8 21 8H36.9948V140.129H11V18Z" fill="#F2D056"/>
<path d="M37 8H174C179.523 8 184 12.4772 184 18V21C184 26.5228 179.523 31 174 31H37V8Z" fill="#76D57A"/>
<path d="M11 284C11 278.477 15.4772 274 21 274H174C179.523 274 184 278.477 184 284V286.808C184 292.331 179.523 296.808 174 296.808H21C15.4771 296.808 11 292.331 11 286.808V284Z" fill="#F2D056"/>
<path d="M11 139H145C150.523 139 155 143.477 155 149V152C155 157.523 150.523 162 145 162H21C15.4771 162 11 157.523 11 152V139Z" fill="#F2D056"/>
<path d="M11 145H37V297H21C15.4772 297 11 292.523 11 287V145Z" fill="#76D57A"/>
</svg>
