<svg width="362" height="384" viewBox="0 0 362 384" fill="none" xmlns="http://www.w3.org/2000/svg">
<g filter="url(#filter0_d)">
<path d="M249.449 108.158C403 17 285.774 138.668 278.1 179.715C461.5 342 269.526 199.205 261.402 251.265L233.194 264.274L225.066 282.288C177.734 354.34 59 449 137.574 285.79L15.3012 369.5C-22.2283 383.048 48.0443 258.301 81.3074 205.744C-16 159 22.8795 136.23 81.3074 113.638C139.735 91.0457 131.301 108.158 131.301 108.158C-32.6988 -80.4999 113.669 18.09 249.449 108.158Z" fill="url(#paint0_linear)"/>
</g>
<defs>
<filter id="filter0_d" x="0.560852" y="0.546631" width="360.614" height="383.285" filterUnits="userSpaceOnUse" color-interpolation-filters="sRGB">
<feFlood flood-opacity="0" result="BackgroundImageFix"/>
<feColorMatrix in="SourceAlpha" type="matrix" values="0 0 0 0 0 0 0 0 0 0 0 0 0 0 0 0 0 0 127 0"/>
<feOffset dy="4"/>
<feGaussianBlur stdDeviation="2"/>
<feColorMatrix type="matrix" values="0 0 0 0 0 0 0 0 0 0 0 0 0 0 0 0 0 0 0.25 0"/>
<feBlend mode="normal" in2="BackgroundImageFix" result="effect1_dropShadow"/>
<feBlend mode="normal" in="SourceGraphic" in2="effect1_dropShadow" result="shape"/>
</filter>
<linearGradient id="paint0_linear" x1="180.865" y1="6.12257" x2="180.866" y2="559.595" gradientUnits="userSpaceOnUse">
<stop stop-color="#E75E5E"/>
<stop offset="1" stop-color="#FFD600"/>
</linearGradient>
</defs>
</svg>
