<svg id="Layer_1" data-name="Layer 1" xmlns="http://www.w3.org/2000/svg" xmlns:xlink="http://www.w3.org/1999/xlink" viewBox="0 0 1013.2 700.67"><defs><linearGradient id="linear-gradient" x1="722.97" y1="107.48" x2="722.97" y2="-298.02" gradientTransform="matrix(1, 0, 0, -1, 0, 284)" gradientUnits="userSpaceOnUse"><stop offset="0" stop-color="#e75e5e"/><stop offset="1" stop-color="#ffd600"/></linearGradient><linearGradient id="linear-gradient-2" x1="26.57" y1="-219.4" x2="26.57" y2="-772.87" xlink:href="#linear-gradient"/></defs><title>PolygonEdit2</title><path d="M786.62,230.59c53.71-19,36.32,30.51,28.65,71.56,113.82,139.1-8.58,19.49-16.7,71.55l-28.21,13-8.13,18c-47.33,72-21.51,38.53-87.49,3.5L632.19,380.7c-37.53,13.55-47,0-13.72-52.52-36.33-44.29-58.42-69.52,0-92.11s50-5.48,50-5.48C662.47,166.67,650.84,140.52,786.62,230.59Z" transform="translate(149.74 -172.43)" fill="url(#linear-gradient)"/><path d="M95.15,605.43C248.7,514.28,131.48,635.94,123.8,677c183.4,162.29-8.57,19.49-16.7,71.55l-28.2,13-8.13,18C23.44,851.62-95.3,946.28-16.72,783.07L-139,866.78c-37.53,13.54,32.75-111.2,66-163.76-97.31-46.74-58.43-69.51,0-92.11s50-5.48,50-5.48C-187,416.78-40.63,515.37,95.15,605.43Z" transform="translate(149.74 -172.43)" fill="url(#linear-gradient-2)"/></svg>