<svg width="41" height="40" viewBox="0 0 41 40" fill="none" xmlns="http://www.w3.org/2000/svg">
<path d="M35.1503 23.8115C34.5049 24.1027 34.531 24.1079 34.1896 23.366C33.7536 22.421 33.5217 21.4273 33.5017 20.3465C33.4851 19.4191 33.6979 18.5571 33.9655 17.7115C34.1791 17.039 33.9012 16.8017 33.4131 16.7405C33.0578 16.697 32.6913 16.7012 32.3352 16.7447C31.4092 16.8576 31.318 16.9529 31.0722 18.0254C30.9264 18.6617 30.8099 19.3031 30.5676 19.9071C29.97 21.394 29.2908 22.8261 28.5942 24.2478C28.4691 24.5037 28.3658 24.7793 28.1894 24.998C27.6848 24.0965 27.4946 23.1007 27.452 22.0562C27.4095 21.0251 27.6744 20.0667 27.9653 19.1186C28.0635 18.7994 27.9819 18.6015 27.7508 18.4637C27.6483 18.4026 27.5337 18.3455 27.4216 18.3351C26.8275 18.2792 26.2352 18.2874 25.6558 18.4812C25.3952 18.5672 25.2249 18.7413 25.1668 19.0905C25.0539 19.7734 24.8776 20.4365 24.6395 21.0748C23.9794 22.8426 23.3236 24.6134 22.6643 26.3823C22.0911 27.919 21.5265 29.4597 20.8473 30.9353C20.7995 31.0399 20.7596 31.2213 20.6397 31.185C20.5181 31.1487 20.5607 30.9705 20.5554 30.8483C20.5164 29.9779 20.7153 29.1478 20.8846 28.3168C21.153 27.0019 21.4466 25.6931 21.7315 24.3823C21.8131 24.0062 21.6759 23.7533 21.4145 23.573C21.0384 23.315 20.664 23.3026 20.2567 23.6642C20.3123 23.1295 20.3366 22.6601 20.3175 22.1908C20.2741 21.1442 19.8675 20.4635 19.1597 20.3059C18.6429 20.1908 18.1539 20.3701 17.6918 20.6312C16.6147 21.2395 15.7488 22.1565 15.0209 23.2694C14.9357 23.3989 14.8498 23.5181 14.7264 23.5978C13.3602 24.4859 11.9948 25.3739 10.632 26.2702C10.4826 26.3697 10.3862 26.3417 10.2785 26.2039C9.59227 25.3262 8.79584 24.6019 8.00715 23.8673C6.9049 22.8394 5.7645 21.8654 4.81338 20.6261C4.25752 19.9008 3.79368 19.106 3.56176 18.1465C3.18304 16.5777 3.46625 15.1167 4.09684 13.7282C4.84297 12.0858 5.94954 10.8176 7.16982 9.68804C9.10765 7.8954 11.233 6.47165 13.4731 5.29979C15.9815 3.989 18.5838 3.14449 21.3554 3.27192C22.4533 3.32269 23.519 3.54959 24.497 4.191C25.1893 4.64489 25.6479 5.30078 25.7773 6.2634C25.9293 7.39073 25.7026 8.43219 25.2831 9.4197C24.346 11.6258 22.8564 13.1883 21.0957 14.4121C19.6295 15.4306 18.0479 16.0773 16.3741 16.416C15.449 16.6036 14.5205 16.7165 13.5903 16.5476C12.5228 16.3539 11.5361 15.928 10.8057 14.9022C10.7214 14.784 10.6145 14.7021 10.4712 14.785C10.3244 14.87 10.3357 15.0254 10.3496 15.1747C10.36 15.2772 10.3835 15.3808 10.4139 15.4783C10.6093 16.1073 10.975 16.5819 11.4032 16.9964C12.5167 18.0771 13.8361 18.3942 15.2214 18.4264C16.5773 18.4585 17.9123 18.2533 19.2334 17.8762C22.2135 17.0265 24.7098 15.2826 26.5321 12.2942C27.6213 10.5078 28.311 8.53899 28.2501 6.28631C28.2111 4.85741 27.808 3.59531 26.9351 2.56952C25.8971 1.35194 24.6091 0.739586 23.2271 0.371775C21.6879 -0.036497 20.1332 -0.0945098 18.5628 0.129311C17.1966 0.324075 15.8616 0.657773 14.5622 1.19139C12.574 2.00893 10.6536 3.013 8.81571 4.23365C6.93267 5.48325 5.1581 6.91433 3.60166 8.70688C2.2241 10.2933 1.04023 12.0435 0.373147 14.2163C0.0882761 15.1468 -0.116712 16.1033 0.0743941 17.1094C0.319365 18.4046 0.854361 19.5258 1.55794 20.5371C2.62194 22.0687 3.92743 23.2747 5.27373 24.427C6.35511 25.3533 7.48686 26.1968 8.52568 27.1926C8.82011 27.4744 8.81837 27.4744 8.47182 27.691C8.06708 27.9428 7.65794 28.1852 7.26018 28.4536C5.65602 29.5355 4.10565 30.7084 2.84006 32.3384C2.21729 33.1415 1.79426 34.043 1.59717 35.0439C2.62726 36.8801 3.85287 38.5463 5.23824 40C7.60166 39.7803 9.41089 38.3131 10.7476 35.8863C11.393 34.7144 11.6953 33.3881 11.8091 31.9892C11.909 30.7561 11.8038 29.5624 11.4998 28.3852C11.4469 28.178 11.2497 27.9718 11.327 27.7894C11.3991 27.6215 11.6163 27.5366 11.7761 27.4268C12.4205 26.9801 13.0667 26.5398 13.7303 26.0849C13.759 26.2549 13.7034 26.3544 13.6791 26.4621C13.2987 28.1273 13.0337 29.8059 13.323 31.5364C13.5028 32.614 13.8025 33.6284 14.3722 34.5206C14.9585 35.4387 16.2675 35.334 16.799 34.4957C17.3037 33.6999 17.6381 32.8025 17.9864 31.9093C18.1775 31.4202 18.3529 30.9229 18.5353 30.4286C18.5014 31.0234 18.5032 31.6036 18.5214 32.1819C18.5396 32.7518 18.6161 33.3144 18.8645 33.818C19.1633 34.4231 19.7253 34.5993 20.2473 34.276C20.798 33.935 21.1732 33.3734 21.465 32.7642C22.7166 30.1437 23.8779 27.4671 24.8394 24.6725C25.0444 24.0788 25.2546 23.4861 25.4865 22.826C25.5221 23.0426 25.5456 23.1752 25.5673 23.3079C25.781 24.6394 26.1614 25.8994 26.7121 27.0838C26.8303 27.3376 26.8172 27.5128 26.6678 27.7562C26.1606 28.58 25.6047 29.3551 25.0566 30.1384C24.5963 30.7975 24.1037 31.4275 23.7146 32.1528C23.3655 32.8056 23.5661 33.4739 24.1472 33.6222C24.3261 33.6678 24.5146 33.6813 24.6979 33.6781C25.7133 33.6636 26.6505 33.3019 27.5234 32.7092C28.6986 31.9103 29.3953 30.7394 29.3631 29.0722C29.3483 28.3136 29.1763 27.5853 28.9201 26.8899C28.8637 26.7355 28.861 26.6236 28.9453 26.4785C29.7592 25.0879 30.4783 23.6301 31.1393 22.1297C31.2566 21.8655 31.3391 21.5721 31.5284 21.3142C31.5536 21.4188 31.5736 21.4842 31.5849 21.5515C31.7951 22.795 32.0782 24.0104 32.6098 25.1202C32.7557 25.4238 32.6828 25.5781 32.4813 25.7812C31.7873 26.4848 31.2019 27.3054 30.7424 28.2453C30.3845 28.9769 30.1396 29.7581 30.1422 30.6151C30.1448 31.5684 30.7563 32.13 31.5354 31.9062C32.3475 31.674 33.1006 31.2792 33.7763 30.6897C35.2486 29.4038 35.6802 28.0474 35.219 26.1543C35.0384 25.4092 35.0418 25.4217 35.6681 25.1958C37.0378 24.7026 38.4275 24.6818 39.8242 24.9534C39.9823 24.9844 40.1387 25.0197 40.2932 25.0601C40.3748 24.4684 40.4391 23.8695 40.4843 23.2632C38.6976 22.7422 36.9135 23.0127 35.1503 23.8115ZM6.20756 37.1422C5.81064 37.3101 5.39809 37.3816 4.97589 37.3422C4.45037 37.2924 4.11687 36.8501 4.08296 36.1847C4.04472 35.418 4.23499 34.7258 4.51637 34.0522C5.02793 32.8295 5.88695 31.9996 6.76342 31.1851C7.61546 30.3925 8.531 29.7158 9.45686 29.0578C9.7374 28.8589 9.74173 28.8609 9.80598 29.2599C9.88936 29.7718 9.96409 30.2847 9.93624 30.75C10.0093 33.5403 8.31039 36.2542 6.20756 37.1422ZM18.9565 23.0717C18.8089 24.2478 18.4866 25.3679 18.1436 26.4745C17.6762 27.9853 17.2211 29.5032 16.6331 30.956C16.4984 31.2907 16.3569 31.6233 16.1389 31.8959C15.9331 32.1539 15.7506 32.1238 15.6082 31.8088C15.3303 31.1933 15.365 30.5084 15.3199 30.011C15.3329 27.5158 16.0347 25.4766 17.1908 23.6436C17.5139 23.1327 17.9264 22.7172 18.4728 22.5503C18.8436 22.4376 19.0147 22.6158 18.9565 23.0717ZM27.0517 30.4587C26.6556 31.2753 26.085 31.869 25.3849 32.2917C25.3101 32.3363 25.2138 32.415 25.1461 32.3104C25.0818 32.2119 25.1851 32.1466 25.232 32.0845C25.9278 31.1778 26.6148 30.2639 27.2341 29.2805C27.2436 29.2649 27.2671 29.2629 27.32 29.236C27.314 29.691 27.2306 30.0909 27.0517 30.4587ZM31.8558 30.4235C31.7525 30.4815 31.6326 30.5903 31.5318 30.4971C31.4207 30.3946 31.4649 30.2132 31.4988 30.0744C31.6569 29.4413 31.8697 28.8351 32.1633 28.2703C32.4099 27.7947 32.7157 27.3792 33.0518 26.9916C33.1873 26.8362 33.2481 26.8549 33.2941 27.0787C33.3419 27.3077 33.3462 27.5367 33.3497 27.7698C33.3411 29.0454 32.7982 29.8941 31.8558 30.4235Z" fill="#CD6699"/>
</svg>
