<svg width="38" height="30" viewBox="0 0 38 30" fill="none" xmlns="http://www.w3.org/2000/svg">
<path d="M37.079 3.38159C36.258 3.7259 35.4057 3.99752 34.5312 4.19417C35.4948 3.32817 36.2193 2.245 36.6281 1.03597C36.7447 0.69082 36.3483 0.392356 36.0188 0.57716C34.8022 1.25963 33.4918 1.77161 32.1238 2.09904C32.0444 2.11804 31.9625 2.12767 31.8803 2.12767C31.6312 2.12767 31.3889 2.04017 31.1984 1.88135C29.7429 0.668156 27.8709 0 25.9274 0C25.0864 0 24.2374 0.123969 23.4037 0.3685C20.8206 1.1262 18.8276 3.14132 18.2023 5.62753C17.9677 6.56007 17.9042 7.49346 18.0134 8.40172C18.0259 8.50609 17.9737 8.57893 17.9416 8.6131C17.8851 8.673 17.805 8.70733 17.7218 8.70733C17.7125 8.70733 17.703 8.70691 17.6935 8.70606C12.0394 8.20924 6.94066 5.63298 3.33664 1.45193C3.15286 1.23867 2.80043 1.26483 2.65394 1.50246C1.94818 2.64758 1.57521 3.95731 1.57521 5.29004C1.57521 7.33251 2.44286 9.25732 3.94997 10.6605C3.31619 10.5184 2.70277 10.2946 2.13296 9.99525C1.85728 9.85041 1.5181 10.0366 1.51422 10.3348C1.47476 13.369 3.35313 16.0689 6.16698 17.2847C6.11031 17.2859 6.05364 17.2865 5.99689 17.2865C5.55085 17.2865 5.09924 17.2458 4.65474 17.1655C4.34429 17.1094 4.08348 17.3879 4.17988 17.6726C5.0932 20.3693 7.54831 22.3571 10.4863 22.8084C8.04795 24.3564 5.20843 25.173 2.25305 25.173L1.3317 25.1725C1.04783 25.1725 0.807744 25.3475 0.735402 25.6076C0.664141 25.8637 0.795402 26.1338 1.03747 26.267C4.36771 28.1 8.16633 29.0687 12.0243 29.0687C15.4013 29.0687 18.5602 28.4349 21.4133 27.185C24.0289 26.0391 26.3402 24.4011 28.2831 22.3164C30.093 20.3745 31.5083 18.1328 32.4895 15.6535C33.4249 13.2903 33.9193 10.7686 33.9193 8.36116V8.24648C33.9193 7.85991 34.1041 7.49618 34.4266 7.24859C35.6505 6.3088 36.7163 5.20254 37.5942 3.96054C37.826 3.6326 37.4604 3.22158 37.079 3.38159Z" fill="white"/>
</svg>
